<svg xmlns="http://www.w3.org/2000/svg" viewBox="0 0 100 150"><g stroke="#1f1b17" stroke-width="2.2" stroke-linecap="round" stroke-linejoin="round"><path d="M40.5,80 Q40,98 41.5,113 Q42,127 42.3,139 L47.3,139 Q47.8,127 48.3,113 Q49.5,97 49.8,82Z" fill="#deb68a"/><path d="M59.5,80 Q60,98 58.5,113 Q58,127 57.7,139 L52.7,139 Q52.2,127 51.7,113 Q50.5,97 50.2,82Z" fill="#deb68a"/><path d="M42.3,138.5 Q38.5,141 37.8,144.2 Q38,146 40.5,146 L47.6,146 Q48.4,143.5 47.3,138.5Z" fill="#deb68a"/><path d="M57.7,138.5 Q61.5,141 62.2,144.2 Q62,146 59.5,146 L52.4,146 Q51.6,143.5 52.7,138.5Z" fill="#deb68a"/><path d="M44,143.5 L44.3,145.6 M41.2,143.4 L41.2,145.6" fill="none" stroke-width="1.1"/><path d="M56,143.5 L55.7,145.6 M58.8,143.4 L58.8,145.6" fill="none" stroke-width="1.1"/><path d="M46.8,31 L46.6,41 Q50,42.5 53.4,41 L53.2,31Z" fill="#deb68a"/><path d="M39.6,70 Q50,72.5 60.4,70 L63.8,129 Q50,132 36.2,129Z" fill="#2f4668"/><path d="M36,124.4 Q50,127.4 64,124.4 L63.8,129 Q50,132 36.2,129Z" fill="#7d93ad"/><path d="M38.4,42 Q50,39.6 61.6,42 Q63.6,47 62.2,56 L61.4,70 Q50,72.6 38.6,70 L37.8,56 Q36.4,47 38.4,42Z" fill="#7d93ad"/><path d="M46.4,40.6 L50,49 L53.6,40.6" fill="none" stroke-width="1.5"/><path d="M38.6,69 Q50,71.6 61.4,69 L61.6,74 Q50,76.6 38.4,74Z" fill="#a97835"/><path d="M38.8,41.5 Q34.2,42.5 33.8,48.5 L32.2,66 Q31.4,76 31.8,85.5 L36.6,85.5 Q36.8,77 38,68 L40.6,53Z" fill="#7d93ad"/><path d="M61.2,41.5 Q65.8,42.5 66.2,48.5 L67.8,66 Q68.6,76 68.2,85.5 L63.4,85.5 Q63.2,77 62,68 L59.4,53Z" fill="#7d93ad"/><path d="M32.2,77 L36.6,77 L36.6,85.5 L31.8,85.5Z" fill="#deb68a"/><path d="M67.8,77 L63.4,77 L63.4,85.5 L68.2,85.5Z" fill="#deb68a"/><path d="M32.2,77 L36.8,77" fill="none" stroke-width="1.6"/><path d="M67.8,77 L63.2,77" fill="none" stroke-width="1.6"/><path d="M20,82 Q24,72 27.4,80 Q29,70 33,80 Q35.4,73 38.4,82Z" fill="#56793f"/><path d="M27.4,80 L26,76.4 M33,80 L32,75.4" fill="none" stroke-width="1.1"/><path d="M18.6,81.6 L40,81.6 L37.4,99.4 Q29.3,102.6 21.2,99.4Z" fill="#a97835"/><path d="M19.4,87.4 L39.2,87.4 M20.2,93.4 L38.4,93.4 M25.6,82 L26,100.6 M32.8,82 L32.6,100.6" fill="none" stroke-width="1.1"/><path d="M31.6,84.5 Q30.4,89.5 32.4,92.3 Q34.8,93.4 36.6,90.8 Q37.4,87.8 36.8,84.5Z" fill="#deb68a"/><path d="M68.4,84.5 Q69.6,89.5 67.6,92.3 Q65.2,93.4 63.4,90.8 Q62.6,87.8 63.2,84.5Z" fill="#deb68a"/><path d="M41.9,21.6 Q38.8,20.8 39,24.4 Q39.3,27.9 42.3,27.5" fill="#deb68a"/><path d="M58.1,21.6 Q61.2,20.8 61,24.4 Q60.7,27.9 57.7,27.5" fill="#deb68a"/><path d="M41.5,22 Q41.5,12 50,12 Q58.5,12 58.5,22 Q58.5,30 55,33.5 Q52.5,35.5 50,35.5 Q47.5,35.5 45,33.5 Q41.5,30 41.5,22Z" fill="#deb68a"/><path d="M43.6,21.2 Q45.9,20.2 48.1,21.1" fill="none" stroke-width="1.4"/><path d="M56.4,21.2 Q54.1,20.2 51.9,21.1" fill="none" stroke-width="1.4"/><path d="M44.4,24.9 Q46.3,23.6 48.099999999999994,24.9" fill="none" stroke-width="1.4"/><circle cx="46.3" cy="25.3" r="0.85" fill="#1f1b17" stroke="none"/><path d="M51.800000000000004,24.9 Q53.7,23.6 55.5,24.9" fill="none" stroke-width="1.4"/><circle cx="53.7" cy="25.3" r="0.85" fill="#1f1b17" stroke="none"/><path d="M48.3,31.1 Q50,32.3 51.7,31.1" fill="none" stroke-width="1.4"/><path d="M50.2,25.6 Q49,28.2 50.8,28.6" fill="none" stroke-width="1.3"/><path d="M42.6,26.2 L43.6,27.2" fill="none" stroke-width="1.1"/><path d="M57.4,26.2 L56.4,27.2" fill="none" stroke-width="1.1"/><path d="M47,17.2 L53,17.2" fill="none" stroke-width="1.1"/><path d="M41.3,23.4 Q41.4,19 43,17.6 L43.4,23.6Z" fill="#a79f90" stroke-width="1.4"/><path d="M58.7,23.4 Q58.6,19 57,17.6 L56.6,23.6Z" fill="#a79f90" stroke-width="1.4"/><path d="M40.8,20.2 Q40,9.4 50,9 Q60,9.4 59.2,20.2 Q50,16.4 40.8,20.2Z" fill="#2f4668"/><path d="M42.4,14.2 Q50,11.6 57.6,14.2" fill="none" stroke-width="1.3" stroke="#7d93ad"/><path d="M58,15 L64.4,19.4 L62.6,21.6 L58.4,19.2Z" fill="#2f4668" stroke-width="1.6"/></g></svg>
