<svg xmlns="http://www.w3.org/2000/svg" viewBox="0 0 256 256"><g stroke="#1d1a17" stroke-width="1" stroke-linejoin="round" stroke-linecap="round"><rect x="0" y="0" width="256" height="256" fill="#f3e9d2" stroke="none"/><circle cx="87.8" cy="48.4" r="0.9" fill="#d8c7a0" stroke="none" opacity="0.7"/><path d="M136.2,97.4 Q135.9,97.8 136.1,101.6" fill="none" stroke="#e3d3b0" stroke-width="0.9" opacity="0.52"/><path d="M110.8,202.5 Q115.8,205.5 117.2,207.9" fill="none" stroke="#d8c7a0" stroke-width="1.1" opacity="0.54"/><circle cx="236.6" cy="24.6" r="1" fill="#e3d3b0" stroke="none" opacity="0.76"/><path d="M46.9,40.9 Q45,42.9 42.5,43.7" fill="none" stroke="#d8c7a0" stroke-width="1.1" opacity="0.59"/><path d="M138.9,28.3 Q142.1,30.2 145.9,33.6" fill="none" stroke="#e3d3b0" stroke-width="1.3" opacity="0.52"/><circle cx="117.3" cy="82.3" r="1.4" fill="#d8c7a0" stroke="none" opacity="0.74"/><path d="M69.7,145 Q64.6,148.6 61.2,148.5" fill="none" stroke="#e3d3b0" stroke-width="0.9" opacity="0.66"/><path d="M109.3,186.6 Q110.1,189.8 109.5,190.9" fill="none" stroke="#d8c7a0" stroke-width="1.3" opacity="0.55"/><circle cx="213.6" cy="85.5" r="1.3" fill="#e3d3b0" stroke="none" opacity="0.71"/><path d="M146.2,118 Q143.3,116.9 139,119.3" fill="none" stroke="#d8c7a0" stroke-width="1.4" opacity="0.75"/><path d="M161.5,240.4 Q164.3,241.1 165.7,245.6" fill="none" stroke="#e3d3b0" stroke-width="1.2" opacity="0.75"/><circle cx="52.3" cy="40.7" r="1.4" fill="#d8c7a0" stroke="none" opacity="0.52"/><path d="M43.5,70.5 Q41.2,71.6 39.3,72.3" fill="none" stroke="#e3d3b0" stroke-width="1.5" opacity="0.62"/><path d="M200.8,211 Q203.2,216 202.5,217.3" fill="none" stroke="#d8c7a0" stroke-width="0.9" opacity="0.58"/><circle cx="54.2" cy="66.9" r="1.2" fill="#e3d3b0" stroke="none" opacity="0.57"/><path d="M148.3,73.9 Q149.4,78.9 150,80.3" fill="none" stroke="#d8c7a0" stroke-width="1.4" opacity="0.5"/><path d="M131.5,154.8 Q137.7,157.2 141.7,156.5" fill="none" stroke="#e3d3b0" stroke-width="1.4" opacity="0.7"/><circle cx="103.5" cy="105" r="1.3" fill="#d8c7a0" stroke="none" opacity="0.53"/><path d="M28.2,29.4 Q29.2,28.9 33.8,32.5" fill="none" stroke="#e3d3b0" stroke-width="0.9" opacity="0.56"/><path d="M37.1,96.9 Q31.9,97.5 29.5,100.1" fill="none" stroke="#d8c7a0" stroke-width="1.1" opacity="0.51"/><circle cx="97" cy="42" r="1.6" fill="#e3d3b0" stroke="none" opacity="0.75"/><path d="M120.2,124.3 Q122.3,126.6 126.3,126.3" fill="none" stroke="#d8c7a0" stroke-width="0.9" opacity="0.53"/><path d="M19.3,230.8 Q20.9,232.7 26.3,234.3" fill="none" stroke="#e3d3b0" stroke-width="1.6" opacity="0.66"/><circle cx="210.8" cy="172.7" r="1.1" fill="#d8c7a0" stroke="none" opacity="0.58"/><path d="M52.1,190 Q48.6,193.3 47.2,194" fill="none" stroke="#e3d3b0" stroke-width="1.6" opacity="0.66"/><path d="M208.4,197.8 Q206.6,199.2 204.6,201.9" fill="none" stroke="#d8c7a0" stroke-width="0.8" opacity="0.75"/><circle cx="20.4" cy="77.7" r="1.4" fill="#e3d3b0" stroke="none" opacity="0.58"/><path d="M232.1,116 Q226.2,115.1 221.4,116.4" fill="none" stroke="#d8c7a0" stroke-width="1" opacity="0.78"/><path d="M58.8,60.6 Q54.1,62.7 49.5,63.7" fill="none" stroke="#e3d3b0" stroke-width="1.4" opacity="0.69"/><circle cx="33.3" cy="164.6" r="1.4" fill="#d8c7a0" stroke="none" opacity="0.77"/><path d="M185,123 Q183.7,126.8 180,126.9" fill="none" stroke="#e3d3b0" stroke-width="1.1" opacity="0.55"/><path d="M105.5,229.9 Q106.2,232.7 109.7,232.4" fill="none" stroke="#d8c7a0" stroke-width="1.4" opacity="0.72"/><circle cx="47.3" cy="202.4" r="1.3" fill="#e3d3b0" stroke="none" opacity="0.79"/><path d="M93.9,139.1 Q99.9,139.4 104.7,139.6" fill="none" stroke="#d8c7a0" stroke-width="1.5" opacity="0.54"/><path d="M112.9,212.8 Q114.4,213.5 117.5,216.3" fill="none" stroke="#e3d3b0" stroke-width="1.3" opacity="0.75"/><circle cx="73.1" cy="109.5" r="1.5" fill="#d8c7a0" stroke="none" opacity="0.54"/><path d="M94.7,118.5 Q93,119.5 88,120.5" fill="none" stroke="#e3d3b0" stroke-width="1.2" opacity="0.68"/><path d="M133.4,18.3 Q136.2,18 136.7,20.5" fill="none" stroke="#d8c7a0" stroke-width="1.2" opacity="0.63"/><circle cx="179.3" cy="140.9" r="1.2" fill="#e3d3b0" stroke="none" opacity="0.6"/></g></svg>
