<svg xmlns="http://www.w3.org/2000/svg" viewBox="0 0 60 160"><g stroke="#1d1a17" stroke-width="3" stroke-linejoin="round" stroke-linecap="round"><g transform="translate(20,76) rotate(-14)"><path d="M-6,-64 Q0,-68 6,-64 L6,0 L2,-4 L-1,2 L-4,-3 L-6,1Z" fill="#5f6468"/><rect x="-2.5" y="-58" width="3" height="50" rx="1.5" fill="#9aa0a3" stroke="none"/><rect x="-8" y="-54" width="16" height="9" rx="3" fill="#e5b53a"/></g><g transform="translate(40,90) rotate(12)"><path d="M-6,64 Q0,68 6,64 L6,0 L3,4 L0,-2 L-3,3 L-6,-1Z" fill="#5f6468"/><rect x="-2.5" y="10" width="3" height="48" rx="1.5" fill="#9aa0a3" stroke="none"/><rect x="-8" y="46" width="16" height="9" rx="3" fill="#e5b53a"/></g><path d="M30,69 L32.5,77.7 L41.3,75.5 L35,82 L41.3,88.5 L32.5,86.3 L30,95 L27.5,86.3 L18.7,88.5 L25,82 L18.7,75.5 L27.5,77.7Z" fill="#e5b53a" stroke-width="2"/><circle cx="30" cy="82" r="3" fill="#f1d27a" stroke="none"/></g></svg>
