<svg xmlns="http://www.w3.org/2000/svg" viewBox="0 0 64 70"><g stroke="#1f1b17" stroke-width="1.8" stroke-linecap="round" stroke-linejoin="round"><path d="M32,18L32,3" fill="none" stroke-width="4.2"/><path d="M32,18L32,3" fill="none" stroke="#6e4a2c" stroke-width="1.8"/><path d="M10,54C10,34 20,18 32,16C44,18 54,34 54,54A22,11 0 0 1 10,54Z" fill="#deae3c" stroke="none"/><path d="M36,16.4C46,20 54,34 54,54A22,11 0 0 1 42,63.7C46,46 44,28 36,16.4Z" fill="#a97835" stroke="none"/><path d="M16,48q2,-6 1,-12M24,56q2,-8 1,-15M34,58q2,-8 1,-16M22,32q2,-4 2,-8" fill="none" stroke="#a97835" stroke-width="1.4"/><path d="M10,54C10,34 20,18 32,16C44,18 54,34 54,54A22,11 0 0 1 10,54Z" fill="none" stroke-width="2"/><path d="M18,28Q32,34 46,28" fill="none" stroke-width="3.6"/><path d="M18,28Q32,34 46,28" fill="none" stroke="#6e4a2c" stroke-width="1.4"/><path d="M27,17.4Q32,20 37,17.4" fill="none" stroke-width="1.4"/></g></svg>
