<svg xmlns="http://www.w3.org/2000/svg" viewBox="0 0 48 48"><g stroke="#1f1b17" stroke-width="1.5" stroke-linecap="round" stroke-linejoin="round"><ellipse cx="24" cy="28" rx="20" ry="13" fill="#6f685d" stroke="none"/><ellipse cx="8.4" cy="21.5" rx="5" ry="3.5" fill="#a79f90"/><ellipse cx="15" cy="17.5" rx="5.5" ry="3.9" fill="#a79f90"/><ellipse cx="24" cy="16" rx="5" ry="3.5" fill="#a79f90"/><ellipse cx="33" cy="17.5" rx="5.5" ry="3.9" fill="#a79f90"/><ellipse cx="39.6" cy="21.5" rx="5" ry="3.5" fill="#a79f90"/><ellipse cx="42" cy="27" rx="5" ry="3.5" fill="#a79f90"/><ellipse cx="6" cy="27" rx="5" ry="3.5" fill="#a79f90"/><ellipse cx="24" cy="28" rx="14" ry="8" fill="#7d93ad"/><path d="M14,27q2.5,-2 5,0t5,0t5,0t5,0M16,31.5q2.5,-2 5,0t5,0t5,0" fill="none" stroke-width="1.1"/><path d="M17,24.5l5,0" fill="none" stroke="#f7f0df" stroke-width="1.3"/><ellipse cx="8.4" cy="32.5" rx="6" ry="4.2" fill="#a79f90"/><ellipse cx="15" cy="36.5" rx="6" ry="4.2" fill="#a79f90"/><ellipse cx="24" cy="38" rx="6.5" ry="4.6" fill="#a79f90"/><ellipse cx="33" cy="36.5" rx="6" ry="4.2" fill="#a79f90"/><ellipse cx="39.6" cy="32.5" rx="6" ry="4.2" fill="#a79f90"/></g></svg>
